<svg width="77" height="69" viewBox="0 0 77 69" fill="none" xmlns="http://www.w3.org/2000/svg">
<path d="M57.477 40.3705L51.5895 50.5679C49.8895 53.5124 47.9525 55.3674 45.7784 56.133C43.6227 56.9668 41.2025 56.6087 38.5178 55.0587L31.1133 50.7837C28.342 49.1837 26.7102 47.2601 26.2179 45.0129C25.7255 42.7656 26.351 40.1823 28.0943 37.2628L37.6916 21.2398L42.3032 23.9023L31.5032 42.6084C31.1782 43.1713 31.2972 43.6153 31.8601 43.9403L43.8762 50.8778C44.4391 51.2028 44.883 51.0838 45.208 50.5209L51.208 40.1286C52.9081 37.1841 54.7893 35.3258 56.8517 34.5535C58.9141 33.7813 61.331 34.1951 64.1023 35.7951L71.247 39.9201C73.9317 41.4701 75.551 43.4154 76.1049 45.756C76.6339 48.1398 76.0267 50.7915 74.2834 53.711L65.1736 68.8896L60.562 66.2271L70.987 48.1705C71.312 47.6076 71.193 47.1636 70.6301 46.8386L58.8089 40.0136C58.2459 39.6886 57.802 39.8076 57.477 40.3705Z" fill="#F7F3E9"/>
<path d="M34.2618 21.2272H46.0368C49.4368 21.2272 52.0118 21.9772 53.7618 23.4772C55.5618 24.9272 56.4618 27.2022 56.4618 30.3022V38.8522C56.4618 42.0522 55.6118 44.4272 53.9118 45.9772C52.2118 47.5272 49.6618 48.2772 46.2618 48.2272L27.5868 47.9272V42.6022H49.1868C49.8368 42.6022 50.1618 42.2772 50.1618 41.6272V27.7522C50.1618 27.1022 49.8368 26.7772 49.1868 26.7772H37.1868C33.7868 26.7772 31.2368 26.0772 29.5368 24.6772C27.8368 23.2772 26.9868 20.9772 26.9868 17.7772V9.52721C26.9868 6.42721 27.8618 4.05221 29.6118 2.40221C31.4118 0.752207 34.0118 -0.0477935 37.4118 0.00220583L55.1118 0.302206V5.62721H34.2618C33.6118 5.62721 33.2868 5.95221 33.2868 6.60221V20.2522C33.2868 20.9022 33.6118 21.2272 34.2618 21.2272Z" fill="#F7F3E9"/>
<path d="M28.5466 51.1839L22.6591 40.9865C20.9591 38.042 20.3211 35.437 20.7451 33.1714C21.1009 30.8876 22.6211 28.9707 25.3058 27.4207L32.7103 23.1457C35.4816 21.5457 37.9634 21.0943 40.1557 21.7915C42.3481 22.4888 44.2726 24.3222 45.9293 27.2916L55.007 43.6147L50.3954 46.2772L39.5954 27.571C39.2704 27.0081 38.8264 26.8891 38.2635 27.2141L26.2474 34.1516C25.6845 34.4766 25.5655 34.9206 25.8905 35.4835L31.8905 45.8758C33.5905 48.8203 34.2593 51.3787 33.8969 53.5509C33.5344 55.7232 31.9676 57.6093 29.1963 59.2093L22.0516 63.3343C19.3669 64.8843 16.8726 65.314 14.5687 64.6235C12.2397 63.8896 10.2469 62.038 8.59019 59.0685L0 43.5898L4.61159 40.9273L15.0366 58.9839C15.3616 59.5469 15.8055 59.6658 16.3685 59.3408L28.1897 52.5158C28.7526 52.1908 28.8716 51.7469 28.5466 51.1839Z" fill="#F7F3E9"/>
</svg>
