<svg width="232" height="64" viewBox="0 0 232 64" fill="none" xmlns="http://www.w3.org/2000/svg">
<path d="M18.34 29.915C19.0733 30.4283 19.7517 30.8867 20.375 31.29C21.035 31.6567 21.6033 32.06 22.08 32.5C23.0333 33.38 23.51 34.4617 23.51 35.745V45.095C23.51 46.745 22.9233 48.01 21.75 48.89C20.76 49.6967 19.4583 50.1 17.845 50.1H0.300003V39.925H4.26V46.36H19.11V35.635L4.7 26.78C3.41667 26.0467 2.35334 25.295 1.51 24.525C0.703336 23.7183 0.300003 22.6367 0.300003 21.28V14.35C0.300003 12.1867 0.813336 10.7017 1.84 9.895C2.72 9.19833 4.24167 8.85 6.405 8.85H23.015V19.025H19.055V12.59H4.7V21.39L18.34 29.915Z" fill="white"/>
<path d="M44.6584 29.915C45.3917 30.4283 46.07 30.8867 46.6934 31.29C47.3534 31.6567 47.9217 32.06 48.3984 32.5C49.3517 33.38 49.8284 34.4617 49.8284 35.745V45.095C49.8284 46.745 49.2417 48.01 48.0684 48.89C47.0784 49.6967 45.7767 50.1 44.1634 50.1H26.6184V39.925H30.5784V46.36H45.4284V35.635L31.0184 26.78C29.735 26.0467 28.6717 25.295 27.8284 24.525C27.0217 23.7183 26.6184 22.6367 26.6184 21.28V14.35C26.6184 12.1867 27.1317 10.7017 28.1584 9.895C29.0384 9.19833 30.56 8.85 32.7234 8.85H49.3334V19.025H45.3734V12.59H31.0184V21.39L44.6584 29.915Z" fill="white"/>
<path d="M34.1 30.475C35.1 31.175 36.025 31.8 36.875 32.35C37.775 32.85 38.55 33.4 39.2 34C40.5 35.2 41.15 36.675 41.15 38.425V51.175C41.15 53.425 40.35 55.15 38.75 56.35C37.4 57.45 35.625 58 33.425 58H9.5V44.125H14.9V52.9H35.15V38.275L15.5 26.2C13.75 25.2 12.3 24.175 11.15 23.125C10.05 22.025 9.5 20.55 9.5 18.7V9.25C9.5 6.3 10.2 4.275 11.6 3.175C12.8 2.225 14.875 1.75 17.825 1.75H40.475V15.625H35.075V6.85H15.5V18.85L34.1 30.475Z" fill="white"/>
<path d="M78.864 10.724C79.2373 10.9853 79.5827 11.2187 79.9 11.424C80.236 11.6107 80.5253 11.816 80.768 12.04C81.2533 12.488 81.496 13.0387 81.496 13.692V18.452C81.496 19.292 81.1973 19.936 80.6 20.384C80.096 20.7947 79.4333 21 78.612 21H69.68V15.82H71.696V19.096H79.256V13.636L71.92 9.128C71.2667 8.75467 70.7253 8.372 70.296 7.98C69.8853 7.56933 69.68 7.01867 69.68 6.328V2.8C69.68 1.69867 69.9413 0.942667 70.464 0.532001C70.912 0.177334 71.6867 0 72.788 0H81.244V5.18H79.228V1.904H71.92V6.384L78.864 10.724Z" fill="white"/>
<path d="M88.2718 21.056C86.8158 21.056 86.0878 20.3373 86.0878 18.9V8.876H84.2958V6.972H88.3558V19.096L93.9278 15.596V8.876H92.5558V6.972H96.1958V19.096H97.9598V21H93.9278V17.864L89.2798 20.776C88.9811 20.9627 88.6451 21.056 88.2718 21.056Z" fill="white"/>
<path d="M104.27 19.096H110.206V8.708L104.27 12.432V19.096ZM100.238 26.096H101.974V8.932H100.21V7H104.27V10.192L109.114 7.14C109.562 6.86 110.038 6.72 110.542 6.72C111.046 6.72 111.485 6.87867 111.858 7.196C112.25 7.49467 112.446 7.94267 112.446 8.54V18.368C112.446 19.2267 112.325 19.8147 112.082 20.132C111.615 20.7107 110.897 21 109.926 21H104.27V26.096H106.118V28H100.238V26.096Z" fill="white"/>
<path d="M115.255 9.744C115.255 7.896 116.217 6.972 118.139 6.972H122.871C123.786 6.972 124.449 7.14933 124.859 7.504C125.27 7.85867 125.475 8.512 125.475 9.464V12.068L117.495 17.108V19.096H123.263V17.472H125.475V18.956C125.475 19.516 125.298 20.0013 124.943 20.412C124.607 20.804 124.038 21 123.235 21H117.495C116.693 21 116.114 20.804 115.759 20.412C115.423 20.0013 115.255 19.516 115.255 18.956V9.744ZM117.495 14.84L123.235 11.228V8.904H117.495V14.84Z" fill="white"/>
<path d="M136.475 7C137.931 7 138.659 7.71867 138.659 9.156V11.648H136.391V8.932L132.023 11.704V19.096H133.395V21H127.991V19.096H129.755V8.876H127.991V6.972H132.023V9.436L135.467 7.28C135.766 7.09334 136.102 7 136.475 7Z" fill="white"/>
<path d="M160.43 10.724C160.804 10.9853 161.149 11.2187 161.466 11.424C161.802 11.6107 162.092 11.816 162.334 12.04C162.82 12.488 163.062 13.0387 163.062 13.692V18.452C163.062 19.292 162.764 19.936 162.166 20.384C161.662 20.7947 161 21 160.178 21H151.246V15.82H153.262V19.096H160.822V13.636L153.486 9.128C152.833 8.75467 152.292 8.372 151.862 7.98C151.452 7.56933 151.246 7.01867 151.246 6.328V2.8C151.246 1.69867 151.508 0.942667 152.03 0.532001C152.478 0.177334 153.253 0 154.354 0H162.81V5.18H160.794V1.904H153.486V6.384L160.43 10.724Z" fill="white"/>
<path d="M170.202 19.096H172.022V21H166.142V19.096H167.906V8.904H166.142V7H170.202V19.096ZM169.054 1.848C169.446 1.848 169.773 1.99733 170.034 2.296C170.314 2.576 170.454 2.92133 170.454 3.332C170.454 3.724 170.314 4.06 170.034 4.34C169.773 4.60133 169.437 4.732 169.026 4.732C168.634 4.732 168.298 4.60133 168.018 4.34C167.757 4.06 167.626 3.724 167.626 3.332C167.626 2.92133 167.766 2.576 168.046 2.296C168.326 1.99733 168.662 1.848 169.054 1.848Z" fill="white"/>
<path d="M190.917 6.72C192.373 6.72 193.101 7.43867 193.101 8.876V19.096H194.893V21H189.489V19.096H190.833V8.68L185.709 11.872V19.096H187.081V21H182.069V19.096H183.413L183.441 18.984V8.652L178.289 11.872V19.096H179.661V21H174.257V19.096H176.021V8.876H174.257V7H178.289V9.66L182.517 7C182.815 6.81333 183.151 6.72 183.525 6.72C184.981 6.72 185.709 7.43867 185.709 8.876V9.632L189.909 7C190.207 6.81333 190.543 6.72 190.917 6.72Z" fill="white"/>
<path d="M201.203 19.096H207.139V8.708L201.203 12.432V19.096ZM197.171 26.096H198.907V8.932H197.143V7H201.203V10.192L206.047 7.14C206.495 6.86 206.971 6.72 207.475 6.72C207.979 6.72 208.418 6.87867 208.791 7.196C209.183 7.49467 209.379 7.94267 209.379 8.54V18.368C209.379 19.2267 209.258 19.8147 209.015 20.132C208.549 20.7107 207.83 21 206.859 21H201.203V26.096H203.051V28H197.171V26.096Z" fill="white"/>
<path d="M216.249 19.096H218.069V21H212.189V19.096H213.953V1.904H212.189V0H216.249V19.096Z" fill="white"/>
<path d="M220.857 9.744C220.857 7.896 221.818 6.972 223.741 6.972H228.473C229.388 6.972 230.05 7.14933 230.461 7.504C230.872 7.85867 231.077 8.512 231.077 9.464V12.068L223.097 17.108V19.096H228.865V17.472H231.077V18.956C231.077 19.516 230.9 20.0013 230.545 20.412C230.209 20.804 229.64 21 228.837 21H223.097C222.294 21 221.716 20.804 221.361 20.412C221.025 20.0013 220.857 19.516 220.857 18.956V9.744ZM223.097 14.84L228.837 11.228V8.904H223.097V14.84Z" fill="white"/>
<path d="M78.864 52.724C79.2373 52.9853 79.5827 53.2187 79.9 53.424C80.236 53.6107 80.5253 53.816 80.768 54.04C81.2533 54.488 81.496 55.0387 81.496 55.692V60.452C81.496 61.292 81.1973 61.936 80.6 62.384C80.096 62.7947 79.4333 63 78.612 63H69.68V57.82H71.696V61.096H79.256V55.636L71.92 51.128C71.2667 50.7547 70.7253 50.372 70.296 49.98C69.8853 49.5693 69.68 49.0187 69.68 48.328V44.8C69.68 43.6987 69.9413 42.9427 70.464 42.532C70.912 42.1773 71.6867 42 72.788 42H81.244V47.18H79.228V43.904H71.92V48.384L78.864 52.724Z" fill="white"/>
<path d="M93.9838 63H87.0118C85.6678 63 84.8931 62.496 84.6878 61.488C84.6131 61.1893 84.5758 60.872 84.5758 60.536V51.464C84.5758 50.68 84.7905 50.0733 85.2198 49.644C85.6678 49.196 86.3398 48.972 87.2358 48.972H93.9838V52.528H92.0798V50.904H86.8158V61.096H92.0798V59.472H93.9838V63Z" fill="white"/>
<path d="M109.882 61.096V63H104.478V61.096H105.822V50.736L100.25 54.236V61.096H101.622V63H96.2177V61.096H97.9817V43.904H96.2177V42H100.25V51.968L104.898 49.056C105.252 48.832 105.672 48.72 106.158 48.72C106.643 48.72 107.082 48.916 107.474 49.308C107.884 49.6813 108.09 50.2227 108.09 50.932V61.096H109.882Z" fill="white"/>
<path d="M112.412 51.744C112.412 49.896 113.373 48.972 115.296 48.972H120.028C120.942 48.972 121.605 49.1493 122.016 49.504C122.426 49.8587 122.632 50.512 122.632 51.464V54.068L114.652 59.108V61.096H120.42V59.472H122.632V60.956C122.632 61.516 122.454 62.0013 122.1 62.412C121.764 62.804 121.194 63 120.392 63H114.652C113.849 63 113.27 62.804 112.916 62.412C112.58 62.0013 112.412 61.516 112.412 60.956V51.744ZM114.652 56.84L120.392 53.228V50.904H114.652V56.84Z" fill="white"/>
<path d="M137.663 61.068V63H133.603V59.78L128.759 62.832C128.181 63.1307 127.63 63.28 127.107 63.28C126.603 63.28 126.193 63.0933 125.875 62.72C125.577 62.3467 125.427 61.9173 125.427 61.432V51.632C125.427 50.7733 125.558 50.1853 125.819 49.868C126.267 49.2893 126.977 49 127.947 49H133.603V43.904H131.755V42H135.899V61.068H137.663ZM133.603 50.904H127.667V61.236L133.603 57.54V50.904Z" fill="white"/>
<path d="M143.889 63.056C142.433 63.056 141.705 62.3373 141.705 60.9V50.876H139.913V48.972H143.973V61.096L149.545 57.596V50.876H148.173V48.972H151.813V61.096H153.577V63H149.545V59.864L144.897 62.776C144.598 62.9627 144.262 63.056 143.889 63.056Z" fill="white"/>
<path d="M160.167 61.096H161.987V63H156.107V61.096H157.871V43.904H156.107V42H160.167V61.096Z" fill="white"/>
<path d="M164.775 51.744C164.775 49.896 165.736 48.972 167.659 48.972H172.391C173.306 48.972 173.968 49.1493 174.379 49.504C174.79 49.8587 174.995 50.512 174.995 51.464V54.068L167.015 59.108V61.096H172.783V59.472H174.995V60.956C174.995 61.516 174.818 62.0013 174.463 62.412C174.127 62.804 173.558 63 172.755 63H167.015C166.212 63 165.634 62.804 165.279 62.412C164.943 62.0013 164.775 61.516 164.775 60.956V51.744ZM167.015 56.84L172.755 53.228V50.904H167.015V56.84Z" fill="white"/>
<path d="M185.995 49C187.451 49 188.179 49.7187 188.179 51.156V53.648H185.911V50.932L181.543 53.704V61.096H182.915V63H177.511V61.096H179.275V50.876H177.511V48.972H181.543V51.436L184.987 49.28C185.285 49.0933 185.621 49 185.995 49Z" fill="white"/>
</svg>
