<svg width="279" height="71" viewBox="0 0 279 71" fill="none" xmlns="http://www.w3.org/2000/svg">
<path d="M98.6 12.76H104.88C106.693 12.76 108.067 13.16 109 13.96C109.96 14.7333 110.44 15.9467 110.44 17.6V22.16C110.44 23.8667 109.987 25.1333 109.08 25.96C108.173 26.7867 106.813 27.1867 105 27.16L95.04 27V24.16H106.56C106.907 24.16 107.08 23.9867 107.08 23.64V16.24C107.08 15.8933 106.907 15.72 106.56 15.72H100.16C98.3467 15.72 96.9867 15.3467 96.08 14.6C95.1733 13.8533 94.72 12.6267 94.72 10.92V6.52C94.72 4.86667 95.1867 3.6 96.12 2.72C97.08 1.84 98.4667 1.41333 100.28 1.44L109.72 1.6V4.44H98.6C98.2533 4.44 98.08 4.61333 98.08 4.96V12.24C98.08 12.5867 98.2533 12.76 98.6 12.76Z" fill="white"/>
<path d="M121.105 27.28H118.345C116.799 27.28 115.665 26.9867 114.945 26.4C114.252 25.7867 113.905 24.72 113.905 23.2V7.4H117.065V24.32C117.065 24.56 117.185 24.68 117.425 24.68H124.385L124.345 7.4H127.505V27H124.745L124.385 24.68L124.625 23.6C124.625 24.8533 124.359 25.7867 123.825 26.4C123.292 26.9867 122.385 27.28 121.105 27.28Z" fill="white"/>
<path d="M135.237 34.6H132.077V7.4H134.837L135.237 9.72L134.997 10.8C134.997 9.54667 135.264 8.62667 135.797 8.04C136.33 7.42667 137.224 7.12 138.477 7.12H141.237C142.784 7.12 143.904 7.41333 144.597 8C145.29 8.58667 145.637 9.65333 145.637 11.2V22.88C145.637 24.48 145.277 25.5867 144.557 26.2C143.837 26.8133 142.637 27.12 140.957 27.12L135.237 27.04V34.6ZM135.237 10.08V24.88L134.837 24.44L142.117 24.52C142.357 24.52 142.477 24.4 142.477 24.16V10.08C142.477 9.84 142.357 9.72 142.117 9.72H135.597C135.357 9.72 135.237 9.84 135.237 10.08Z" fill="white"/>
<path d="M162.451 27.2H154.451C152.718 27.2 151.451 26.88 150.651 26.24C149.851 25.5733 149.451 24.4133 149.451 22.76V11.44C149.451 9.78667 149.798 8.65333 150.491 8.04C151.185 7.42667 152.358 7.12 154.011 7.12H158.211C159.918 7.12 161.131 7.42667 161.851 8.04C162.571 8.65333 162.931 9.78667 162.931 11.44V19.32H152.251V16.96H159.771V10.08C159.771 9.84 159.638 9.72 159.371 9.72H153.011C152.771 9.72 152.651 9.84 152.651 10.08V24.2C152.651 24.44 152.771 24.56 153.011 24.56H162.451V27.2Z" fill="white"/>
<path d="M173.202 7.12H175.403V9.84H170.323C170.056 9.84 169.923 9.96 169.923 10.2L169.963 27H166.802L166.763 7.4H169.562L169.923 9.72L169.562 10.8C169.562 9.54667 169.843 8.62667 170.403 8.04C170.989 7.42667 171.923 7.12 173.202 7.12Z" fill="white"/>
<path d="M188.678 12.76H194.958C196.771 12.76 198.145 13.16 199.078 13.96C200.038 14.7333 200.518 15.9467 200.518 17.6V22.16C200.518 23.8667 200.065 25.1333 199.158 25.96C198.251 26.7867 196.891 27.1867 195.078 27.16L185.118 27V24.16H196.638C196.985 24.16 197.158 23.9867 197.158 23.64V16.24C197.158 15.8933 196.985 15.72 196.638 15.72H190.238C188.425 15.72 187.065 15.3467 186.158 14.6C185.251 13.8533 184.798 12.6267 184.798 10.92V6.52C184.798 4.86667 185.265 3.6 186.198 2.72C187.158 1.84 188.545 1.41333 190.358 1.44L199.798 1.6V4.44H188.678C188.331 4.44 188.158 4.61333 188.158 4.96V12.24C188.158 12.5867 188.331 12.76 188.678 12.76Z" fill="white"/>
<path d="M207.783 27H204.623V7.4H207.783V27ZM207.783 3.48H204.623V0.4H207.783V3.48Z" fill="white"/>
<path d="M218.743 7.12H221.063C222.636 7.12 223.769 7.41333 224.463 8C225.156 8.58667 225.503 9.65333 225.503 11.2V27H222.343V10.08C222.343 9.84 222.223 9.72 221.983 9.72H215.863C215.596 9.72 215.463 9.84 215.463 10.08L215.503 27H212.343L212.303 7.4H215.063L215.463 9.72L215.103 10.8C215.103 9.54667 215.383 8.62667 215.943 8.04C216.529 7.42667 217.463 7.12 218.743 7.12ZM228.743 7.12H231.103C232.649 7.12 233.769 7.41333 234.463 8C235.156 8.58667 235.503 9.65333 235.503 11.2V27H232.343V10.08C232.343 9.84 232.223 9.72 231.983 9.72H225.863C225.623 9.72 225.503 9.84 225.503 10.08L225.423 11.28L225.103 10.8C225.103 9.54667 225.396 8.62667 225.983 8.04C226.569 7.42667 227.489 7.12 228.743 7.12Z" fill="white"/>
<path d="M242.776 34.6H239.616V7.4H242.376L242.776 9.72L242.536 10.8C242.536 9.54667 242.803 8.62667 243.336 8.04C243.869 7.42667 244.763 7.12 246.016 7.12H248.776C250.323 7.12 251.443 7.41333 252.136 8C252.829 8.58667 253.176 9.65333 253.176 11.2V22.88C253.176 24.48 252.816 25.5867 252.096 26.2C251.376 26.8133 250.176 27.12 248.496 27.12L242.776 27.04V34.6ZM242.776 10.08V24.88L242.376 24.44L249.656 24.52C249.896 24.52 250.016 24.4 250.016 24.16V10.08C250.016 9.84 249.896 9.72 249.656 9.72H243.136C242.896 9.72 242.776 9.84 242.776 10.08Z" fill="white"/>
<path d="M260.83 27H257.67V0H260.83V27Z" fill="white"/>
<path d="M278.311 27.2H270.311C268.577 27.2 267.311 26.88 266.511 26.24C265.711 25.5733 265.311 24.4133 265.311 22.76V11.44C265.311 9.78667 265.657 8.65333 266.351 8.04C267.044 7.42667 268.217 7.12 269.871 7.12H274.071C275.777 7.12 276.991 7.42667 277.711 8.04C278.431 8.65333 278.791 9.78667 278.791 11.44V19.32H268.111V16.96H275.631V10.08C275.631 9.84 275.497 9.72 275.231 9.72H268.871C268.631 9.72 268.511 9.84 268.511 10.08V24.2C268.511 24.44 268.631 24.56 268.871 24.56H278.311V27.2Z" fill="white"/>
<path d="M98.6 55.76H104.88C106.693 55.76 108.067 56.16 109 56.96C109.96 57.7333 110.44 58.9467 110.44 60.6V65.16C110.44 66.8667 109.987 68.1333 109.08 68.96C108.173 69.7867 106.813 70.1867 105 70.16L95.04 70V67.16H106.56C106.907 67.16 107.08 66.9867 107.08 66.64V59.24C107.08 58.8933 106.907 58.72 106.56 58.72H100.16C98.3467 58.72 96.9867 58.3467 96.08 57.6C95.1733 56.8533 94.72 55.6267 94.72 53.92V49.52C94.72 47.8667 95.1867 46.6 96.12 45.72C97.08 44.84 98.4667 44.4133 100.28 44.44L109.72 44.6V47.44H98.6C98.2533 47.44 98.08 47.6133 98.08 47.96V55.24C98.08 55.5867 98.2533 55.76 98.6 55.76Z" fill="white"/>
<path d="M124.865 70.28H118.785C117.052 70.28 115.785 69.9467 114.985 69.28C114.212 68.6133 113.825 67.4667 113.825 65.84V54.56C113.825 52.9067 114.212 51.76 114.985 51.12C115.785 50.4533 117.052 50.12 118.785 50.12H124.865V52.76H117.385C117.119 52.76 116.985 52.8933 116.985 53.16V67.24C116.985 67.5067 117.119 67.64 117.385 67.64H124.865V70.28Z" fill="white"/>
<path d="M134.099 50.12H136.859C138.432 50.12 139.566 50.4133 140.259 51C140.952 51.5867 141.299 52.6533 141.299 54.2V70H138.139V53.08C138.139 52.84 138.006 52.72 137.739 52.72H131.219C130.979 52.72 130.859 52.84 130.859 53.08L130.899 70H127.739L127.699 43H130.859V52.72L130.459 53.8C130.459 52.5467 130.752 51.6267 131.339 51.04C131.926 50.4267 132.846 50.12 134.099 50.12Z" fill="white"/>
<path d="M158.154 70.2H150.154C148.421 70.2 147.154 69.88 146.354 69.24C145.554 68.5733 145.154 67.4133 145.154 65.76V54.44C145.154 52.7867 145.501 51.6533 146.194 51.04C146.888 50.4267 148.061 50.12 149.714 50.12H153.914C155.621 50.12 156.834 50.4267 157.554 51.04C158.274 51.6533 158.634 52.7867 158.634 54.44V62.32H147.954V59.96H155.474V53.08C155.474 52.84 155.341 52.72 155.074 52.72H148.714C148.474 52.72 148.354 52.84 148.354 53.08V67.2C148.354 67.44 148.474 67.56 148.714 67.56H158.154V70.2Z" fill="white"/>
<path d="M172.546 43H175.706V70H172.946L172.546 67.68L172.786 66.6C172.786 67.8533 172.519 68.7867 171.986 69.4C171.452 69.9867 170.559 70.28 169.306 70.28H166.546C165.026 70.28 163.906 69.9867 163.186 69.4C162.492 68.7867 162.146 67.72 162.146 66.2V54.52C162.146 52.8933 162.506 51.7733 163.226 51.16C163.946 50.5467 165.146 50.2533 166.826 50.28L172.546 50.32V43ZM172.546 67.32V52.48L172.946 52.92L165.666 52.84C165.399 52.84 165.266 52.96 165.266 53.2V67.32C165.266 67.56 165.399 67.68 165.666 67.68H172.186C172.426 67.68 172.546 67.56 172.546 67.32Z" fill="white"/>
<path d="M187.16 70.28H184.4C182.853 70.28 181.72 69.9867 181 69.4C180.307 68.7867 179.96 67.72 179.96 66.2V50.4H183.12V67.32C183.12 67.56 183.24 67.68 183.48 67.68H190.44L190.4 50.4H193.56V70H190.8L190.44 67.68L190.68 66.6C190.68 67.8533 190.413 68.7867 189.88 69.4C189.347 69.9867 188.44 70.28 187.16 70.28Z" fill="white"/>
<path d="M201.612 70H198.452V43H201.612V70Z" fill="white"/>
<path d="M219.092 70.2H211.092C209.359 70.2 208.092 69.88 207.292 69.24C206.492 68.5733 206.092 67.4133 206.092 65.76V54.44C206.092 52.7867 206.439 51.6533 207.132 51.04C207.825 50.4267 208.999 50.12 210.652 50.12H214.852C216.559 50.12 217.772 50.4267 218.492 51.04C219.212 51.6533 219.572 52.7867 219.572 54.44V62.32H208.892V59.96H216.412V53.08C216.412 52.84 216.279 52.72 216.012 52.72H209.652C209.412 52.72 209.292 52.84 209.292 53.08V67.2C209.292 67.44 209.412 67.56 209.652 67.56H219.092V70.2Z" fill="white"/>
<path d="M229.843 50.12H232.043V52.84H226.963C226.696 52.84 226.563 52.96 226.563 53.2L226.603 70H223.443L223.403 50.4H226.203L226.563 52.72L226.203 53.8C226.203 52.5467 226.483 51.6267 227.043 51.04C227.63 50.4267 228.563 50.12 229.843 50.12Z" fill="white"/>
<path d="M57.477 41.3705L51.5895 51.5679C49.8895 54.5124 47.9525 56.3674 45.7784 57.133C43.6227 57.9668 41.2025 57.6087 38.5178 56.0587L31.1133 51.7837C28.342 50.1837 26.7102 48.2601 26.2179 46.0129C25.7255 43.7656 26.351 41.1823 28.0943 38.2628L37.6916 22.2398L42.3032 24.9023L31.5032 43.6084C31.1782 44.1713 31.2972 44.6153 31.8601 44.9403L43.8762 51.8778C44.4391 52.2028 44.883 52.0838 45.208 51.5209L51.208 41.1286C52.9081 38.1841 54.7893 36.3258 56.8517 35.5535C58.9141 34.7813 61.331 35.1951 64.1023 36.7951L71.247 40.9201C73.9317 42.4701 75.551 44.4154 76.1049 46.756C76.6339 49.1398 76.0267 51.7915 74.2834 54.711L65.1736 69.8896L60.562 67.2271L70.987 49.1705C71.312 48.6076 71.193 48.1636 70.6301 47.8386L58.8089 41.0136C58.2459 40.6886 57.802 40.8076 57.477 41.3705Z" fill="#F7F3E9"/>
<path d="M34.2618 22.2272H46.0368C49.4368 22.2272 52.0118 22.9772 53.7618 24.4772C55.5618 25.9272 56.4618 28.2022 56.4618 31.3022V39.8522C56.4618 43.0522 55.6118 45.4272 53.9118 46.9772C52.2118 48.5272 49.6618 49.2772 46.2618 49.2272L27.5868 48.9272V43.6022H49.1868C49.8368 43.6022 50.1618 43.2772 50.1618 42.6272V28.7522C50.1618 28.1022 49.8368 27.7772 49.1868 27.7772H37.1868C33.7868 27.7772 31.2368 27.0772 29.5368 25.6772C27.8368 24.2772 26.9868 21.9772 26.9868 18.7772V10.5272C26.9868 7.42721 27.8618 5.05221 29.6118 3.40221C31.4118 1.75221 34.0118 0.952206 37.4118 1.00221L55.1118 1.30221V6.62721H34.2618C33.6118 6.62721 33.2868 6.95221 33.2868 7.60221V21.2522C33.2868 21.9022 33.6118 22.2272 34.2618 22.2272Z" fill="#F7F3E9"/>
<path d="M28.5466 52.1839L22.6591 41.9865C20.9591 39.042 20.3211 36.437 20.7451 34.1714C21.1009 31.8876 22.6211 29.9707 25.3058 28.4207L32.7103 24.1457C35.4816 22.5457 37.9634 22.0943 40.1557 22.7915C42.3481 23.4888 44.2726 25.3222 45.9293 28.2916L55.007 44.6147L50.3954 47.2772L39.5954 28.571C39.2704 28.0081 38.8264 27.8891 38.2635 28.2141L26.2474 35.1516C25.6845 35.4766 25.5655 35.9206 25.8905 36.4835L31.8905 46.8758C33.5905 49.8203 34.2593 52.3787 33.8969 54.5509C33.5344 56.7232 31.9676 58.6093 29.1963 60.2093L22.0516 64.3343C19.3669 65.8843 16.8726 66.314 14.5687 65.6235C12.2397 64.8896 10.2469 63.038 8.59019 60.0685L0 44.5898L4.61159 41.9273L15.0366 59.9839C15.3616 60.5469 15.8055 60.6658 16.3685 60.3408L28.1897 53.5158C28.7526 53.1908 28.8716 52.7469 28.5466 52.1839Z" fill="#F7F3E9"/>
</svg>
