<svg xmlns="http://www.w3.org/2000/svg" version="1.1" xmlns:xlink="http://www.w3.org/1999/xlink" xmlns:svgjs="http://svgjs.com/svgjs" width="1000" height="1000"><rect width="1000" height="1000" rx="200" ry="200" fill="#404040"></rect><g transform="matrix(15.789473684210526,0,0,15.789473684210526,104.31365408552324,44.4539473684211)"><svg xmlns="http://www.w3.org/2000/svg" version="1.1" xmlns:xlink="http://www.w3.org/1999/xlink" xmlns:svgjs="http://svgjs.com/svgjs" width="50" height="57"><svg width="50" height="57" viewBox="0 0 50 57" fill="none" xmlns="http://www.w3.org/2000/svg">
<path d="M18.34 28.915C19.0733 29.4283 19.7517 29.8867 20.375 30.29C21.035 30.6567 21.6033 31.06 22.08 31.5C23.0333 32.38 23.51 33.4617 23.51 34.745V44.095C23.51 45.745 22.9233 47.01 21.75 47.89C20.76 48.6967 19.4583 49.1 17.845 49.1H0.300003V38.925H4.26V45.36H19.11V34.635L4.7 25.78C3.41667 25.0467 2.35334 24.295 1.51 23.525C0.703336 22.7183 0.300003 21.6367 0.300003 20.28V13.35C0.300003 11.1867 0.813336 9.70167 1.84 8.895C2.72 8.19834 4.24167 7.85 6.405 7.85H23.015V18.025H19.055V11.59H4.7V20.39L18.34 28.915Z" fill="white"></path>
<path d="M44.6584 28.915C45.3917 29.4283 46.07 29.8867 46.6934 30.29C47.3534 30.6567 47.9217 31.06 48.3984 31.5C49.3517 32.38 49.8284 33.4617 49.8284 34.745V44.095C49.8284 45.745 49.2417 47.01 48.0684 47.89C47.0784 48.6967 45.7767 49.1 44.1634 49.1H26.6184V38.925H30.5784V45.36H45.4284V34.635L31.0184 25.78C29.735 25.0467 28.6717 24.295 27.8284 23.525C27.0217 22.7183 26.6184 21.6367 26.6184 20.28V13.35C26.6184 11.1867 27.1317 9.70167 28.1584 8.895C29.0384 8.19834 30.56 7.85 32.7234 7.85H49.3334V18.025H45.3734V11.59H31.0184V20.39L44.6584 28.915Z" fill="white"></path>
<path d="M34.1 29.475C35.1 30.175 36.025 30.8 36.875 31.35C37.775 31.85 38.55 32.4 39.2 33C40.5 34.2 41.15 35.675 41.15 37.425V50.175C41.15 52.425 40.35 54.15 38.75 55.35C37.4 56.45 35.625 57 33.425 57H9.5V43.125H14.9V51.9H35.15V37.275L15.5 25.2C13.75 24.2 12.3 23.175 11.15 22.125C10.05 21.025 9.5 19.55 9.5 17.7V8.25C9.5 5.3 10.2 3.275 11.6 2.175C12.8 1.225 14.875 0.75 17.825 0.75H40.475V14.625H35.075V5.85H15.5V17.85L34.1 29.475Z" fill="white"></path>
</svg></svg></g></svg>